# xmcd CD database file
#
# Track frame offsets:
#	182
#	16620
#	32162
#	48245
#	64932
#	79430
#	90607
#	103700
#	116530
#	129865
#
# Disc length: 1940 seconds
#
# Revision: 5
# Processed by: cddbd v1.5.2PL0 Copyright (c) Steve Scherf et al.
# Submitted via: CDex 1.79
#
DISCID=7707920a
DTITLE=Jeff Knight - Easy Street
DYEAR=1993
DGENRE=Country
TTITLE0=Easy Street
TTITLE1=The Wheels Just Keep On Turnin'
TTITLE2=Someday You'll Love Me
TTITLE3=What Are You Doin' After Him
TTITLE4=You're Gonna Fall
TTITLE5=Gettin' Down In San Antone
TTITLE6=True Love Stands Alone
TTITLE7=Wasn't That A Good Time
TTITLE8=4-Wheel Drive
TTITLE9=People Sure Are Hard To Keep
EXTD=YEAR: 1993
EXTT0=
EXTT1=
EXTT2=
EXTT3=
EXTT4=
EXTT5=
EXTT6=
EXTT7=
EXTT8=
EXTT9=
PLAYORDER=
